<?xml version="1.0" encoding="UTF-8"?>
<mxfile host="app.diagrams.net" modified="2024-03-24T16:00:00.000Z" agent="AI Assistant" version="21.1.1">
  <diagram id="ncap-violation-process-flowchart" name="NCAP Violation Processing">
    <mxGraphModel dx="1200" dy="800" grid="1" gridSize="10" guides="1" tooltips="1" connect="1" arrows="1" fold="1" page="1" pageScale="1" pageWidth="850" pageHeight="1100">
      <root>
        <mxCell id="0"/>
        <mxCell id="1" parent="0"/>
        
        <!-- Start Node -->
        <mxCell id="2" value="Start" style="ellipse;whiteSpace=wrap;html=1;fillColor=#d5e8d4;strokeColor=#82b366;" vertex="1" parent="1">
          <mxGeometry x="375" y="20" width="100" height="60" as="geometry"/>
        </mxCell>
        
        <!-- Enforcer Login -->
        <mxCell id="3" value="Enforcer logs in" style="rounded=1;whiteSpace=wrap;html=1;fillColor=#dae8fc;strokeColor=#6c8ebf;" vertex="1" parent="1">
          <mxGeometry x="365" y="120" width="120" height="60" as="geometry"/>
        </mxCell>
        
        <!-- Navigate to NCAP -->
        <mxCell id="4" value="Navigate to Create NCAP Violation" style="rounded=1;whiteSpace=wrap;html=1;fillColor=#dae8fc;strokeColor=#6c8ebf;" vertex="1" parent="1">
          <mxGeometry x="365" y="220" width="120" height="60" as="geometry"/>
        </mxCell>
        
        <!-- Capture/Upload Photo -->
        <mxCell id="5" value="Capture or upload vehicle photo" style="rounded=1;whiteSpace=wrap;html=1;fillColor=#dae8fc;strokeColor=#6c8ebf;" vertex="1" parent="1">
          <mxGeometry x="365" y="320" width="120" height="60" as="geometry"/>
        </mxCell>
        
        <!-- System Processes Image -->
        <mxCell id="6" value="System processes image" style="rounded=1;whiteSpace=wrap;html=1;fillColor=#dae8fc;strokeColor=#6c8ebf;" vertex="1" parent="1">
          <mxGeometry x="365" y="420" width="120" height="60" as="geometry"/>
        </mxCell>
        
        <!-- License Plate Recognition -->
        <mxCell id="7" value="License plate recognized?" style="rhombus;whiteSpace=wrap;html=1;fillColor=#fff2cc;strokeColor=#d6b656;" vertex="1" parent="1">
          <mxGeometry x="365" y="520" width="120" height="120" as="geometry"/>
        </mxCell>
        
        <!-- Enter Manually -->
        <mxCell id="8" value="Enter plate number manually" style="rounded=1;whiteSpace=wrap;html=1;fillColor=#dae8fc;strokeColor=#6c8ebf;" vertex="1" parent="1">
          <mxGeometry x="160" y="550" width="120" height="60" as="geometry"/>
        </mxCell>
        
        <!-- Enter Violation Details -->
        <mxCell id="9" value="Enter violation details" style="rounded=1;whiteSpace=wrap;html=1;fillColor=#dae8fc;strokeColor=#6c8ebf;" vertex="1" parent="1">
          <mxGeometry x="365" y="680" width="120" height="60" as="geometry"/>
        </mxCell>
        
        <!-- Check for Vehicle Owner -->
        <mxCell id="10" value="System checks for vehicle owner" style="rounded=1;whiteSpace=wrap;html=1;fillColor=#dae8fc;strokeColor=#6c8ebf;" vertex="1" parent="1">
          <mxGeometry x="365" y="780" width="120" height="60" as="geometry"/>
        </mxCell>
        
        <!-- Owner Found? -->
        <mxCell id="11" value="Owner found in database?" style="rhombus;whiteSpace=wrap;html=1;fillColor=#fff2cc;strokeColor=#d6b656;" vertex="1" parent="1">
          <mxGeometry x="365" y="880" width="120" height="120" as="geometry"/>
        </mxCell>
        
        <!-- Create New Owner Record -->
        <mxCell id="12" value="Create temporary owner record" style="rounded=1;whiteSpace=wrap;html=1;fillColor=#dae8fc;strokeColor=#6c8ebf;" vertex="1" parent="1">
          <mxGeometry x="160" y="910" width="120" height="60" as="geometry"/>
        </mxCell>
        
        <!-- Submit Violation -->
        <mxCell id="13" value="Submit NCAP violation" style="rounded=1;whiteSpace=wrap;html=1;fillColor=#dae8fc;strokeColor=#6c8ebf;" vertex="1" parent="1">
          <mxGeometry x="365" y="1040" width="120" height="60" as="geometry"/>
        </mxCell>
        
        <!-- System Creates Violation -->
        <mxCell id="14" value="System creates violation with PENDING status" style="rounded=1;whiteSpace=wrap;html=1;fillColor=#dae8fc;strokeColor=#6c8ebf;" vertex="1" parent="1">
          <mxGeometry x="320" y="1140" width="210" height="60" as="geometry"/>
        </mxCell>
        
        <!-- Generate Notification -->
        <mxCell id="15" value="Generate notification for owner (if known)" style="rounded=1;whiteSpace=wrap;html=1;fillColor=#dae8fc;strokeColor=#6c8ebf;" vertex="1" parent="1">
          <mxGeometry x="320" y="1240" width="210" height="60" as="geometry"/>
        </mxCell>
        
        <!-- End -->
        <mxCell id="16" value="End" style="ellipse;whiteSpace=wrap;html=1;fillColor=#f8cecc;strokeColor=#b85450;" vertex="1" parent="1">
          <mxGeometry x="375" y="1340" width="100" height="60" as="geometry"/>
        </mxCell>
        
        <!-- Connections -->
        <mxCell id="17" value="" style="endArrow=classic;html=1;exitX=0.5;exitY=1;exitDx=0;exitDy=0;entryX=0.5;entryY=0;entryDx=0;entryDy=0;" edge="1" parent="1" source="2" target="3">
          <mxGeometry width="50" height="50" relative="1" as="geometry">
            <mxPoint x="400" y="430" as="sourcePoint"/>
            <mxPoint x="450" y="380" as="targetPoint"/>
          </mxGeometry>
        </mxCell>
        
        <mxCell id="18" value="" style="endArrow=classic;html=1;exitX=0.5;exitY=1;exitDx=0;exitDy=0;entryX=0.5;entryY=0;entryDx=0;entryDy=0;" edge="1" parent="1" source="3" target="4">
          <mxGeometry width="50" height="50" relative="1" as="geometry">
            <mxPoint x="400" y="430" as="sourcePoint"/>
            <mxPoint x="450" y="380" as="targetPoint"/>
          </mxGeometry>
        </mxCell>
        
        <mxCell id="19" value="" style="endArrow=classic;html=1;exitX=0.5;exitY=1;exitDx=0;exitDy=0;entryX=0.5;entryY=0;entryDx=0;entryDy=0;" edge="1" parent="1" source="4" target="5">
          <mxGeometry width="50" height="50" relative="1" as="geometry">
            <mxPoint x="400" y="430" as="sourcePoint"/>
            <mxPoint x="450" y="380" as="targetPoint"/>
          </mxGeometry>
        </mxCell>
        
        <mxCell id="20" value="" style="endArrow=classic;html=1;exitX=0.5;exitY=1;exitDx=0;exitDy=0;entryX=0.5;entryY=0;entryDx=0;entryDy=0;" edge="1" parent="1" source="5" target="6">
          <mxGeometry width="50" height="50" relative="1" as="geometry">
            <mxPoint x="400" y="430" as="sourcePoint"/>
            <mxPoint x="450" y="380" as="targetPoint"/>
          </mxGeometry>
        </mxCell>
        
        <mxCell id="21" value="" style="endArrow=classic;html=1;exitX=0.5;exitY=1;exitDx=0;exitDy=0;entryX=0.5;entryY=0;entryDx=0;entryDy=0;" edge="1" parent="1" source="6" target="7">
          <mxGeometry width="50" height="50" relative="1" as="geometry">
            <mxPoint x="400" y="430" as="sourcePoint"/>
            <mxPoint x="450" y="380" as="targetPoint"/>
          </mxGeometry>
        </mxCell>
        
        <mxCell id="22" value="No" style="endArrow=classic;html=1;exitX=0;exitY=0.5;exitDx=0;exitDy=0;entryX=1;entryY=0.5;entryDx=0;entryDy=0;" edge="1" parent="1" source="7" target="8">
          <mxGeometry width="50" height="50" relative="1" as="geometry">
            <mxPoint x="400" y="430" as="sourcePoint"/>
            <mxPoint x="450" y="380" as="targetPoint"/>
          </mxGeometry>
        </mxCell>
        
        <mxCell id="23" value="Yes" style="endArrow=classic;html=1;exitX=0.5;exitY=1;exitDx=0;exitDy=0;entryX=0.5;entryY=0;entryDx=0;entryDy=0;" edge="1" parent="1" source="7" target="9">
          <mxGeometry width="50" height="50" relative="1" as="geometry">
            <mxPoint x="400" y="730" as="sourcePoint"/>
            <mxPoint x="450" y="680" as="targetPoint"/>
          </mxGeometry>
        </mxCell>
        
        <mxCell id="24" value="" style="endArrow=classic;html=1;exitX=0.5;exitY=1;exitDx=0;exitDy=0;entryX=0;entryY=0.5;entryDx=0;entryDy=0;" edge="1" parent="1" source="8" target="9">
          <mxGeometry width="50" height="50" relative="1" as="geometry">
            <mxPoint x="400" y="730" as="sourcePoint"/>
            <mxPoint x="450" y="680" as="targetPoint"/>
            <Array as="points">
              <mxPoint x="220" y="710"/>
            </Array>
          </mxGeometry>
        </mxCell>
        
        <mxCell id="25" value="" style="endArrow=classic;html=1;exitX=0.5;exitY=1;exitDx=0;exitDy=0;entryX=0.5;entryY=0;entryDx=0;entryDy=0;" edge="1" parent="1" source="9" target="10">
          <mxGeometry width="50" height="50" relative="1" as="geometry">
            <mxPoint x="400" y="730" as="sourcePoint"/>
            <mxPoint x="450" y="680" as="targetPoint"/>
          </mxGeometry>
        </mxCell>
        
        <mxCell id="26" value="" style="endArrow=classic;html=1;exitX=0.5;exitY=1;exitDx=0;exitDy=0;entryX=0.5;entryY=0;entryDx=0;entryDy=0;" edge="1" parent="1" source="10" target="11">
          <mxGeometry width="50" height="50" relative="1" as="geometry">
            <mxPoint x="400" y="730" as="sourcePoint"/>
            <mxPoint x="450" y="680" as="targetPoint"/>
          </mxGeometry>
        </mxCell>
        
        <mxCell id="27" value="No" style="endArrow=classic;html=1;exitX=0;exitY=0.5;exitDx=0;exitDy=0;entryX=1;entryY=0.5;entryDx=0;entryDy=0;" edge="1" parent="1" source="11" target="12">
          <mxGeometry width="50" height="50" relative="1" as="geometry">
            <mxPoint x="400" y="730" as="sourcePoint"/>
            <mxPoint x="450" y="680" as="targetPoint"/>
          </mxGeometry>
        </mxCell>
        
        <mxCell id="28" value="Yes" style="endArrow=classic;html=1;exitX=0.5;exitY=1;exitDx=0;exitDy=0;entryX=0.5;entryY=0;entryDx=0;entryDy=0;" edge="1" parent="1" source="11" target="13">
          <mxGeometry width="50" height="50" relative="1" as="geometry">
            <mxPoint x="400" y="930" as="sourcePoint"/>
            <mxPoint x="450" y="880" as="targetPoint"/>
          </mxGeometry>
        </mxCell>
        
        <mxCell id="29" value="" style="endArrow=classic;html=1;exitX=0.5;exitY=1;exitDx=0;exitDy=0;entryX=0;entryY=0.5;entryDx=0;entryDy=0;" edge="1" parent="1" source="12" target="13">
          <mxGeometry width="50" height="50" relative="1" as="geometry">
            <mxPoint x="400" y="930" as="sourcePoint"/>
            <mxPoint x="450" y="880" as="targetPoint"/>
            <Array as="points">
              <mxPoint x="220" y="1070"/>
            </Array>
          </mxGeometry>
        </mxCell>
        
        <mxCell id="30" value="" style="endArrow=classic;html=1;exitX=0.5;exitY=1;exitDx=0;exitDy=0;entryX=0.5;entryY=0;entryDx=0;entryDy=0;" edge="1" parent="1" source="13" target="14">
          <mxGeometry width="50" height="50" relative="1" as="geometry">
            <mxPoint x="400" y="930" as="sourcePoint"/>
            <mxPoint x="450" y="880" as="targetPoint"/>
          </mxGeometry>
        </mxCell>
        
        <mxCell id="31" value="" style="endArrow=classic;html=1;exitX=0.5;exitY=1;exitDx=0;exitDy=0;entryX=0.5;entryY=0;entryDx=0;entryDy=0;" edge="1" parent="1" source="14" target="15">
          <mxGeometry width="50" height="50" relative="1" as="geometry">
            <mxPoint x="400" y="1030" as="sourcePoint"/>
            <mxPoint x="450" y="980" as="targetPoint"/>
          </mxGeometry>
        </mxCell>
        
        <mxCell id="32" value="" style="endArrow=classic;html=1;exitX=0.5;exitY=1;exitDx=0;exitDy=0;entryX=0.5;entryY=0;entryDx=0;entryDy=0;" edge="1" parent="1" source="15" target="16">
          <mxGeometry width="50" height="50" relative="1" as="geometry">
            <mxPoint x="400" y="1030" as="sourcePoint"/>
            <mxPoint x="450" y="980" as="targetPoint"/>
          </mxGeometry>
        </mxCell>
      </root>
    </mxGraphModel>
  </diagram>
</mxfile> 